HIERARCHY
ROOT pelvis
{
  OFFSET 0 100 0
  CHANNELS 6 Xposition Yposition Zposition Zrotation Xrotation Yrotation
  JOINT pelvis_right_femur
  {
    OFFSET -10.78128 -3.44521 -0.5502486
    CHANNELS 3 Zrotation Xrotation Yrotation
    JOINT right_femur_tibia
    {
      OFFSET -0.8047443 -44.0398 -0.1307829
      CHANNELS 3 Zrotation Xrotation Yrotation
      JOINT right_tibia_foot
      {
        OFFSET 3.006224 -47.83518 -5
        CHANNELS 3 Zrotation Xrotation Yrotation
        End Site
        {
          OFFSET 0 -5 15
        }
      }
    }
  }
  JOINT pelvis_left_femur
  {
    OFFSET 10.78128 -3.44521 -0.5502486
    CHANNELS 3 Zrotation Xrotation Yrotation
    JOINT left_femur_tibia
    {
      OFFSET 0.8047443 -44.0398 -0.1307829
      CHANNELS 3 Zrotation Xrotation Yrotation
      JOINT left_tibia_foot
      {
        OFFSET -4.370144 -48.10324 -4.275266
        CHANNELS 3 Zrotation Xrotation Yrotation
        End Site
        {
          OFFSET 0 -5 15
        }
      }
    }
  }
  JOINT pelvis_spine1
  {
    OFFSET 0 6.468898 -3.129235
    CHANNELS 3 Zrotation Xrotation Yrotation
    JOINT spine1
    {
      OFFSET 0 23.15396 4.99043
      CHANNELS 3 Zrotation Xrotation Yrotation
      JOINT spine2
      {
        OFFSET 0 20.79997 -5.064912
        CHANNELS 3 Zrotation Xrotation Yrotation
        JOINT neck
        {
          OFFSET 0 14.38658 9.616178
          CHANNELS 3 Zrotation Xrotation Yrotation
          End Site
          {
            OFFSET 0 20 0
          }
        }
      }
      JOINT right_manubrium
      {
        OFFSET -5.722621 16.35077 3.967754
        CHANNELS 3 Zrotation Xrotation Yrotation
        JOINT right_clavicle
        {
          OFFSET -13.16364 1.694482 -4.693211
          CHANNELS 3 Zrotation Xrotation Yrotation
          JOINT right_humerus
          {
            OFFSET -28.5034 -0.3100689 -2.792744
            CHANNELS 3 Zrotation Xrotation Yrotation
            JOINT right_radius
            {
              OFFSET -25.15693 0.02248979 -1.271978
              CHANNELS 3 Zrotation Xrotation Yrotation
              End Site
              {
                OFFSET -15 0 0
              }
            }
          }
        }
      }
      JOINT left_manubrium
      {
        OFFSET 5.722621 16.35077 3.967754
        CHANNELS 3 Zrotation Xrotation Yrotation
        JOINT left_clavicle
        {
          OFFSET 13.16364 1.694482 -4.693211
          CHANNELS 3 Zrotation Xrotation Yrotation
          JOINT left_humerus
          {
            OFFSET 29.39168 -1.063119 -2.237045
            CHANNELS 3 Zrotation Xrotation Yrotation
            JOINT left_radius
            {
              OFFSET 24.59957 -0.9528479 0.9047498
              CHANNELS 3 Zrotation Xrotation Yrotation
              End Site
              {
                OFFSET 15 -0 -0
              }
            }
          }
        }
      }
    }
  }
}
MOTION
Frames: 13
Frame Time: 0.0416666666667
1958.44 99.8768 2174.733 5.239272 -0.7565642 76.21655 3.697795 16.33466 4.227728 -0 13.05891 -0 0.067249 -16.72167 -0.5912178 1.955786 -27.32537 -2.374259 -0 22.05871 -0 -6.012027 -7.263719 19.22811 -0.7350575 0.925221 8.337223 -0.8416303 9.381788 -3.055135 1.503517 21.80834 5.355422 2.430846 -18.16396 6.375725 0.8305649 -22.04316 11.10767 79.98431 25.94634 -6.081779 -0 0 24.21871 -24.08695 10.91831 14.32958 5.205189 -15.93916 -1.865156 -93.79953 23.53983 25.6623 0 0 -12.51356 -0.9197028 5.313885 14.87234
1965.248 98.84035 2175.456 4.925889 -0.4867855 75.76972 2.789506 18.31623 4.063699 -0 16.61972 -0 0.7263628 -15.40886 -0.2497646 1.264797 -27.30841 -2.853857 -0 18.65822 -0 -5.584507 -7.14927 19.03058 -1.109084 0.2618187 8.54674 -0.9478954 9.228779 -3.021447 1.497551 21.59336 5.405342 2.435556 -18.37099 6.406836 0.5701245 -22.33453 10.8838 79.85668 25.47959 -5.584964 -0 0 24.89436 -24.91225 10.52759 14.85176 4.950948 -15.4293 -1.843873 -94.02915 23.38763 26.66224 0 0 -11.26394 -1.314566 4.958774 15.36675
1972.4 98.17759 2176.154 5.040531 -0.05476622 75.48548 1.638821 19.22931 4.242718 -0 22.35409 -0 1.273415 -12.63841 -0.4162157 -0.118486 -25.86338 -3.828944 -0 18.16346 -0 -5.028061 -7.24965 18.7975 -1.747559 -0.436484 8.709058 -1.069146 9.301564 -3.086012 1.582036 21.47223 5.39267 2.465216 -18.49304 6.458656 0.563828 -22.21743 10.70317 80.35282 25.19033 -5.913399 -0 0 24.70306 -25.40919 10.34449 15.00263 4.590567 -15.15938 -1.931616 -93.90122 23.38397 27.04475 0 0 -10.40412 -1.601141 4.737898 15.78727
1979.734 98.0754 2176.825 5.521371 0.417632 75.46457 0.4913366 18.70396 4.633592 -0 30.01119 -0 1.675604 -8.746438 -1.050732 -1.868535 -23.18628 -5.076004 -0 19.56879 -0 -4.459826 -7.727112 18.58634 -2.499657 -1.006882 8.726905 -1.221527 9.563333 -3.224736 1.706333 21.45016 5.397221 2.525241 -18.50598 6.56644 0.8302952 -21.76782 10.60076 81.32646 25.12633 -6.880173 -0 0 23.83856 -25.56224 10.41244 14.80373 4.214978 -15.14769 -2.14078 -93.51193 23.53785 26.88036 0 0 -9.951327 -1.759614 4.70884 16.12361
1987.03 98.6036 2177.453 6.215424 0.782463 75.79618 -0.3637227 16.46555 5.009154 -0 38.83133 -0 1.905384 -4.353939 -2.039233 -3.587483 -19.47041 -6.338618 -0 21.54512 -0 -3.995542 -8.626826 18.39201 -3.165578 -1.309102 8.483259 -1.377809 9.936035 -3.453324 1.799312 21.52155 5.502007 2.605882 -18.41893 6.754585 1.320447 -21.09067 10.58437 82.60662 25.31272 -8.269673 -0 0 22.52288 -25.40463 10.7191 14.33895 3.909306 -15.39123 -2.469819 -92.91996 23.81441 26.20612 0 0 -9.901364 -1.759958 4.889173 16.33411
1994.062 99.68096 2178.017 6.933541 0.9137984 76.5182 -0.7181777 12.42434 5.163959 -0 47.48521 -0 1.92532 -0.2797607 -3.227514 -4.920144 -14.93399 -7.402008 -0 22.83055 -0 -3.696789 -9.887326 18.16148 -3.557371 -1.258722 7.891151 -1.471078 10.32678 -3.822531 1.798631 21.66728 5.750872 2.682551 -18.26219 7.018975 1.913462 -20.30276 10.63515 84.02997 25.72106 -9.889439 -0 0 20.97857 -25.0125 11.19058 13.73654 3.738933 -15.87251 -2.905794 -92.12351 24.13888 24.99549 0 0 -10.26342 -1.570182 5.231914 16.34691
2000.66 101.0716 2178.498 7.500397 0.7582801 77.58516 -0.5531339 6.753431 5.002467 -0 54.15719 -0 1.696526 2.614219 -4.45372 -5.652911 -9.836294 -8.137136 -0 22.57664 -0 -3.543287 -11.38397 17.81161 -3.572707 -0.8648662 6.939114 -1.407854 10.64629 -4.397646 1.677346 21.85259 6.118172 2.717965 -18.078 7.320867 2.434164 -19.50671 10.71392 85.46498 26.24733 -11.6117 -0 0 19.38685 -24.48466 11.70148 13.14174 3.739668 -16.56649 -3.42064 -91.05778 24.41398 23.15366 0 0 -11.09528 -1.174757 5.622037 16.07325
2006.772 102.4263 2178.9 7.787241 0.380614 78.86426 -0.06800833 -0.05496531 4.536525 -0 56.90284 -0 1.220523 3.660744 -5.582095 -5.783181 -4.468494 -8.514306 -0 20.59062 -0 -3.449797 -12.99497 17.25547 -3.264095 -0.2526278 5.722847 -1.099031 10.81411 -5.216791 1.459913 22.0325 6.507684 2.67176 -17.91162 7.598969 2.699423 -18.7552 10.76972 86.82544 26.72043 -13.39488 -0 0 17.83405 -23.90646 12.10662 12.67187 3.91675 -17.44375 -3.961483 -89.62568 24.55061 20.55298 0 0 -12.5163 -0.5991451 5.912321 15.43408
2012.478 103.372 2179.262 7.729467 -0.02514143 80.17415 0.3878431 -7.201353 3.817234 -0 54.3808 -0 0.5875643 2.68062 -6.53092 -5.531316 0.8732173 -8.59927 -0 17.39305 -0 -3.338451 -14.6623 16.44388 -2.854269 0.360647 4.446141 -0.5162833 10.75747 -6.232666 1.220054 22.1678 6.793648 2.522865 -17.79846 7.801133 2.592877 -18.02322 10.74965 88.06976 26.96061 -15.26463 -0 0 16.28399 -23.30746 12.29897 12.35262 4.256275 -18.46408 -4.444997 -87.77763 24.51159 17.1368 0 0 -14.66206 0.07145023 6.009391 14.41103
2017.961 103.6339 2179.653 7.342902 -0.208127 81.35819 0.4803988 -13.75112 2.899319 -0 46.79135 -0 -0.03103438 0.2038049 -7.268867 -5.244986 5.91128 -8.537811 -0 14.01006 -0 -3.238923 -16.39435 15.41737 -2.632124 0.7523264 3.363015 0.2440546 10.42774 -7.274241 1.055044 22.24141 6.893833 2.301772 -17.7474 7.917897 2.145615 -17.22673 10.61441 89.18121 26.88456 -17.24019 -0 0 14.63662 -22.64048 12.27684 12.06625 4.744674 -19.56215 -4.774739 -85.61959 24.35644 13.08481 0 0 -17.55658 0.7089447 5.97592 13.11281
2023.43 103.1391 2180.138 6.73065 -0.02771136 82.3503 0.1273139 -18.99821 1.903844 -0 36.30379 -0 -0.4763743 -2.626125 -7.785785 -5.184041 10.39618 -8.507605 -0 11.51787 -0 -3.326969 -18.17133 14.32806 -2.738198 0.8136024 2.658049 0.9582683 9.850645 -8.096835 1.040859 22.25463 6.823446 2.107823 -17.73275 7.980059 1.562522 -16.30803 10.36057 90.13724 26.59251 -19.24298 -0 0 12.88036 -21.82028 12.1602 11.58404 5.377261 -20.64393 -4.889915 -83.45858 24.23971 8.922294 0 0 -20.95152 1.217911 6.039289 11.79291
2029.052 102.0356 2180.751 6.045302 0.4060968 83.17964 -0.3715364 -22.79054 1.079058 -0 26.12206 -0 -0.7066211 -4.612725 -8.092281 -5.32903 14.12747 -8.622735 -0 10.59179 -0 -3.818351 -19.81812 13.37593 -3.024158 0.6138911 2.342329 1.399309 9.162423 -8.534781 1.191718 22.20486 6.66976 2.067743 -17.71198 8.010622 1.127888 -15.32042 10.03226 90.89602 26.32247 -21.08297 -0 0 11.19016 -20.81696 12.10325 10.72412 6.132253 -21.60761 -4.809486 -81.69283 24.30558 5.374762 0 0 -24.28993 1.614077 6.41788 10.73523
2034.933 100.611 2181.495 5.423853 0.7979483 83.9071 -0.5313581 -25.4196 0.6980512 -0 18.63485 -0 -0.7979798 -5.208083 -8.247855 -5.433887 17.01014 -8.860634 -0 11.41937 -0 -4.794394 -20.99671 12.69356 -3.182381 0.3354546 2.267691 1.506128 8.551039 -8.617095 1.45697 22.08673 6.507708 2.237188 -17.65988 7.995146 1.030071 -14.39456 9.702612 91.41869 26.26189 -22.56035 -0 0 9.795611 -19.71601 12.17376 9.519164 6.922775 -22.36294 -4.612086 -80.60239 24.54868 2.970191 0 0 -26.91526 1.99161 7.108169 10.06773
